<svg xmlns="http://www.w3.org/2000/svg" viewBox="0 0 512 80" fill="white"><path d="M116.35,65.82a16.06,16.06,0,0,1-6.67-5.31,13.56,13.56,0,0,1-2.49-7.83h7.56a10,10,0,0,0,3.16,6.43q2.78,2.61,8.07,2.61,5.07,0,8-2.53a8.22,8.22,0,0,0,2.92-6.51,7.45,7.45,0,0,0-1.71-5.08,11.19,11.19,0,0,0-4.29-3A69.12,69.12,0,0,0,124,42.46a60.69,60.69,0,0,1-8.62-2.81,13.91,13.91,0,0,1-5.54-4.41,12.89,12.89,0,0,1-2.3-8.07,14,14,0,0,1,2.26-7.88,14.68,14.68,0,0,1,6.36-5.3,22.34,22.34,0,0,1,9.4-1.88q7.64,0,12.51,3.83a14.09,14.09,0,0,1,5.5,10.14h-7.8a8.41,8.41,0,0,0-3.27-5.5,11.65,11.65,0,0,0-7.65-2.38,11.09,11.09,0,0,0-7.25,2.3,7.86,7.86,0,0,0-2.81,6.44,7,7,0,0,0,1.68,4.83,10.78,10.78,0,0,0,4.13,2.85q2.46,1,6.91,2.22a63.93,63.93,0,0,1,8.65,2.93,14.39,14.39,0,0,1,5.62,4.44q2.34,3,2.34,8.15A14.25,14.25,0,0,1,142,59.85a15.47,15.47,0,0,1-6.24,5.7A20.63,20.63,0,0,1,126,67.73,23.32,23.32,0,0,1,116.35,65.82Z"/><path d="M161.24,30.29V55.48q0,3.12,1.32,4.41c.89.86,2.42,1.29,4.61,1.29h5.22v6H166c-4,0-6.92-.91-8.9-2.73s-3-4.81-3-9V30.29H148.6V24.44h5.54V13.68h7.1V24.44h11.15v5.85Z"/><path d="M191.46,25.69a16.57,16.57,0,0,1,8.47-2V31h-1.88q-11.93,0-11.93,13V67.18H179V24.44h7.1v6.94A13.65,13.65,0,0,1,191.46,25.69Z"/><path d="M243,48.46H208.82c.26,4.22,1.7,7.5,4.33,9.87a13.73,13.73,0,0,0,9.55,3.55,13.1,13.1,0,0,0,7.68-2.15A11.31,11.31,0,0,0,234.71,54h7.65a18.35,18.35,0,0,1-6.87,10,20.67,20.67,0,0,1-12.79,3.87,21.53,21.53,0,0,1-10.88-2.74,19.22,19.22,0,0,1-7.53-7.76,24.05,24.05,0,0,1-2.73-11.66,24.39,24.39,0,0,1,2.66-11.62,18.55,18.55,0,0,1,7.44-7.68,22.13,22.13,0,0,1,11-2.69,21.44,21.44,0,0,1,10.77,2.65,18.38,18.38,0,0,1,7.21,7.29,21.54,21.54,0,0,1,2.54,10.49A40.51,40.51,0,0,1,243,48.46Zm-8.89-12.75a11.72,11.72,0,0,0-4.88-4.45,15.21,15.21,0,0,0-6.82-1.52,13.18,13.18,0,0,0-9.17,3.44,14,14,0,0,0-4.32,9.51h27A13.06,13.06,0,0,0,234.09,35.71Z"/><path d="M250.62,34.15a19.24,19.24,0,0,1,7.3-7.68,20,20,0,0,1,10.33-2.73A19,19,0,0,1,278,26.15a16.26,16.26,0,0,1,6.17,6.09v-7.8h7.17V67.18h-7.17v-8a16.84,16.84,0,0,1-6.28,6.2,18.79,18.79,0,0,1-9.71,2.46,19.4,19.4,0,0,1-10.3-2.81,19.7,19.7,0,0,1-7.26-7.88A24.64,24.64,0,0,1,248,45.65,24.1,24.1,0,0,1,250.62,34.15Zm31.59,3.16a13.68,13.68,0,0,0-5.26-5.5,14.95,14.95,0,0,0-14.55,0,13.62,13.62,0,0,0-5.22,5.46,17.37,17.37,0,0,0-2,8.42,17.81,17.81,0,0,0,2,8.55,13.81,13.81,0,0,0,5.22,5.53,14.12,14.12,0,0,0,7.26,1.92A14.29,14.29,0,0,0,277,59.73a13.64,13.64,0,0,0,5.26-5.53,17.63,17.63,0,0,0,2-8.47A17.37,17.37,0,0,0,282.21,37.31Z"/><path d="M359.75,25.73a14.85,14.85,0,0,1,6.16,6.2A20.66,20.66,0,0,1,368.17,42V67.18h-7V43q0-6.39-3.16-9.79a11.1,11.1,0,0,0-8.54-3.39,11.39,11.39,0,0,0-8.81,3.55q-3.28,3.56-3.28,10.26V67.18h-7V43q0-6.39-3.16-9.79a11.1,11.1,0,0,0-8.54-3.39,11.39,11.39,0,0,0-8.81,3.55q-3.29,3.56-3.28,10.26V67.18h-7.1V24.44h7.1V30.6a14.06,14.06,0,0,1,5.66-5.15A17.14,17.14,0,0,1,320,23.66a18.54,18.54,0,0,1,9.52,2.42,14.72,14.72,0,0,1,6.16,7.1,14.05,14.05,0,0,1,5.93-7,17.49,17.49,0,0,1,9.2-2.49A18.7,18.7,0,0,1,359.75,25.73Z"/><path d="M385.45,65.82a16,16,0,0,1-6.67-5.31,13.57,13.57,0,0,1-2.5-7.83h7.57A10,10,0,0,0,387,59.11q2.76,2.61,8.07,2.61c3.38,0,6-.84,8-2.53A8.22,8.22,0,0,0,406,52.68a7.41,7.41,0,0,0-1.72-5.08,11,11,0,0,0-4.29-3,68.29,68.29,0,0,0-6.94-2.18,61.13,61.13,0,0,1-8.62-2.81,14,14,0,0,1-5.54-4.41,13,13,0,0,1-2.3-8.07,14,14,0,0,1,2.27-7.88,14.59,14.59,0,0,1,6.35-5.3,22.38,22.38,0,0,1,9.4-1.88q7.65,0,12.52,3.83a14.12,14.12,0,0,1,5.5,10.14h-7.8a8.38,8.38,0,0,0-3.28-5.5,11.6,11.6,0,0,0-7.64-2.38,11.09,11.09,0,0,0-7.25,2.3,7.83,7.83,0,0,0-2.81,6.44,7,7,0,0,0,1.68,4.83,10.71,10.71,0,0,0,4.13,2.85q2.46,1,6.9,2.22a63.65,63.65,0,0,1,8.66,2.93,14.47,14.47,0,0,1,5.62,4.44q2.34,3,2.34,8.15a14.34,14.34,0,0,1-2.11,7.49,15.47,15.47,0,0,1-6.24,5.7,20.69,20.69,0,0,1-9.75,2.18A23.28,23.28,0,0,1,385.45,65.82Z"/><path d="M454,16.13a23.27,23.27,0,0,1,10,9.48,29,29,0,0,1,3.47,14.51A28.83,28.83,0,0,1,464,54.59,22.89,22.89,0,0,1,454,64a34.36,34.36,0,0,1-15.41,3.23H421.68V12.82H438.6A33.58,33.58,0,0,1,454,16.13Zm.66,39.63q5.54-5.58,5.54-15.64t-5.58-15.84q-5.58-5.69-16-5.69h-9.82V61.33h9.82Q449.13,61.33,454.67,55.76Z"/><path d="M503.5,67.18,490.55,45H482V67.18h-7.1V12.82h17.55a23.32,23.32,0,0,1,10.41,2.1,14.68,14.68,0,0,1,6.36,5.7,15.81,15.81,0,0,1,2.11,8.19,16,16,0,0,1-3.24,9.9q-3.24,4.29-9.71,5.7L512,67.18ZM482,39.26h10.45q5.77,0,8.66-2.85a10.21,10.21,0,0,0,2.89-7.6c0-3.23-1-5.72-2.85-7.49s-4.8-2.65-8.7-2.65H482Z"/><path d="M37.4,0a3.43,3.43,0,0,0-2.32.87A26,26,0,0,0,26,20.43,26.06,26.06,0,0,0,35.07,40a3.46,3.46,0,1,0,4.6-5.17,19.19,19.19,0,0,1-6.73-14.39A19.18,19.18,0,0,1,39.68,6,3.46,3.46,0,0,0,37.4,0ZM71,0a3.46,3.46,0,0,0-2.27,6,19.2,19.2,0,0,1,6.73,14.39,19.15,19.15,0,0,1-6.73,14.39A3.46,3.46,0,0,0,73.36,40a26,26,0,0,0,9-19.56,26.06,26.06,0,0,0-9-19.56A3.45,3.45,0,0,0,71,0ZM45.25,6.73a3.45,3.45,0,0,0-2.33.87,16.84,16.84,0,0,0,0,25.65,3.46,3.46,0,1,0,4.6-5.16,10.27,10.27,0,0,1-3.6-7.66,10.29,10.29,0,0,1,3.61-7.67,3.45,3.45,0,0,0-2.27-6Zm17.94,0a3.42,3.42,0,0,0-2.56,1.15,3.45,3.45,0,0,0,.28,4.88,10.25,10.25,0,0,1,3.61,7.67,10.22,10.22,0,0,1-3.61,7.66,3.46,3.46,0,1,0,4.61,5.16,16.87,16.87,0,0,0,0-25.65,3.45,3.45,0,0,0-2.33-.87Zm-9,11.82A3.46,3.46,0,0,0,50.75,22V46.13H3.46A3.45,3.45,0,0,0,0,49.59v27A3.46,3.46,0,0,0,3.46,80H79.68a3.46,3.46,0,0,0,3.46-3.46V49.59a3.45,3.45,0,0,0-3.46-3.46h-22V22a3.45,3.45,0,0,0-3.46-3.46ZM6.92,53.05h69.3v20H6.92ZM16.25,59a4.09,4.09,0,1,0,4.08,4.08A4.08,4.08,0,0,0,16.25,59Zm13.26,0a4.09,4.09,0,1,0,4.09,4.08A4.08,4.08,0,0,0,29.51,59Zm13.27,0a4.09,4.09,0,1,0,4.08,4.08A4.08,4.08,0,0,0,42.78,59Z"/></svg>
